<svg width="50" height="50" viewBox="0 0 50 50" fill="none" xmlns="http://www.w3.org/2000/svg">
<g clip-path="url(#clip0)">
<path d="M17.7083 0V20.8333H0V7.29167C0 6.85417 0.270833 6.45833 0.666667 6.3125L17.3333 0.0625L17.7083 0Z" fill="#78909C"/>
<path d="M35.4167 20.8333C35.3333 39.7082 18.1042 43.6874 17.9375 43.7291L17.7083 43.7499V20.8333H35.4167Z" fill="#78909C"/>
<path d="M2.54166 5.61035L0.666659 6.31243C0.270826 6.45827 -7.62939e-06 6.8541 -7.62939e-06 7.2916V20.8333H17.7083V20.777L2.54166 5.61035Z" fill="#687D88"/>
<path d="M17.7646 20.8333H17.7083V43.7499L17.9375 43.7291C18.0521 43.6999 26.2625 41.802 31.3896 34.4562L17.7646 20.8333Z" fill="#687D88"/>
<path d="M35.4167 7.29167V20.8333H17.7083V0L18.0833 0.0625L34.75 6.3125C35.1458 6.45833 35.4167 6.85417 35.4167 7.29167Z" fill="#CFD8DC"/>
<path d="M17.7083 20.8333V43.7499L17.4792 43.7291C17.3125 43.6874 0.0833257 39.7082 -7.62939e-06 20.8333H17.7083Z" fill="#CFD8DC"/>
<path d="M17.7083 0V20.8333H17.7104L32.9188 5.625L18.0833 0.0625L17.7083 0Z" fill="#B4BCC0"/>
<path d="M17.7083 20.8333H-7.62939e-06C0.0270757 26.727 1.72499 31.1687 4.05208 34.4916L17.7083 20.8333Z" fill="#B4BCC0"/>
<path d="M36.4583 22.9167C28.9917 22.9167 22.9167 28.9917 22.9167 36.4584C22.9167 43.9251 28.9917 50.0001 36.4583 50.0001C43.925 50.0001 50 43.9251 50 36.4584C50 28.9917 43.925 22.9167 36.4583 22.9167Z" fill="#FF7A00"/>
<path d="M43.2334 33.1438L35.9417 41.4772C35.5625 41.9105 35.0229 42.1688 34.4438 42.1876H34.375C33.8229 42.1876 33.2917 41.9688 32.9021 41.5772L28.7354 37.4105C27.9209 36.5959 27.9209 35.2792 28.7354 34.4647C29.55 33.6501 30.8667 33.6501 31.6813 34.4647L34.2729 37.0563L40.1 30.398C40.8563 29.5355 42.1729 29.4438 43.0375 30.2022C43.9042 30.9605 43.9917 32.2772 43.2334 33.1438Z" fill="white"/>
<path d="M36.4583 22.9167C28.9916 22.9167 22.9167 28.9917 22.9167 36.4584C22.9167 43.9251 28.9916 50.0001 36.4583 50.0001V40.8855L35.9416 41.4772C35.5625 41.9105 35.0229 42.1688 34.4437 42.1876H34.375C33.8229 42.1876 33.2916 41.9688 32.9021 41.5772L28.7354 37.4105C27.9208 36.5959 27.9208 35.2792 28.7354 34.4647C29.1416 34.0584 29.675 33.8542 30.2083 33.8542C30.7416 33.8542 31.275 34.0584 31.6812 34.4647L34.2729 37.0563L36.4583 34.5605V22.9167Z" fill="#B55701"/>
<path d="M30.2084 33.854C29.675 33.854 29.1417 34.0582 28.7354 34.4644C27.9209 35.279 27.9209 36.5957 28.7354 37.4103L32.9021 41.5769C33.2938 41.9686 33.8229 42.1873 34.375 42.1873H34.4438C35.0209 42.1686 35.5625 41.9102 35.9417 41.4769L36.4583 40.8852V34.5603L34.2729 37.0561L31.6813 34.4644C31.275 34.0582 30.7417 33.854 30.2084 33.854Z" fill="#DEDEDE"/>
</g>
<defs>
<clipPath id="clip0">
<rect width="50" height="50" fill="white"/>
</clipPath>
</defs>
</svg>
