<svg width="47" height="50" viewBox="0 0 47 50" fill="none" xmlns="http://www.w3.org/2000/svg">
<path d="M34.7147 24.9627C35.281 24.5773 35.745 24.06 36.0669 23.4554C36.3888 22.8508 36.5589 22.1769 36.5625 21.492C36.5625 21.3801 36.5581 21.2683 36.5493 21.1586L36.5625 21.1575C37.1185 20.9196 37.8312 20.6312 38.5122 20.4108C39.1526 20.2046 39.7656 20.0588 40.1988 20.0741C40.5376 20.0741 40.7536 20.2594 40.7843 20.5369C40.8151 20.7211 40.7843 21.1224 40.6604 22.2311L40.5069 23.649C40.5049 23.6657 40.5065 23.6826 40.5119 23.6985C40.5172 23.7144 40.526 23.729 40.5376 23.7411C41.7262 24.6426 42.6953 25.8014 43.3723 27.1307C43.403 27.1625 43.4348 27.1932 43.4655 27.1932L46.0842 27.4706C46.1609 27.4771 46.2322 27.5126 46.2837 27.5699C46.3353 27.6271 46.3631 27.7018 46.3616 27.7787V33.6027C46.358 33.6782 46.3284 33.7501 46.2778 33.8063C46.2273 33.8624 46.1588 33.8994 46.0842 33.9109L43.4655 34.1883C43.4348 34.1883 43.403 34.219 43.3723 34.2497C42.9879 35.0468 42.4896 35.7837 41.893 36.4374C41.893 36.4681 41.8623 36.4988 41.893 36.5295C42.2314 37.205 42.3305 37.9754 42.1739 38.7145C42.0173 39.4536 41.6144 40.1176 41.0311 40.5978C40.3186 41.1704 39.4246 41.4687 38.5111 41.4389C37.5458 41.4154 36.6225 41.0394 35.9155 40.3818L35.3299 39.8269C35.3178 39.8153 35.3033 39.8065 35.2873 39.8012C35.2714 39.7959 35.2545 39.7942 35.2378 39.7962C33.6204 40.0692 31.9648 40.017 30.3679 39.6427C30.3512 39.6407 30.3343 39.6423 30.3183 39.6477C30.3024 39.653 30.2879 39.6618 30.2758 39.6734L29.5059 40.4125C28.8057 41.0717 27.8786 41.4361 26.9169 41.4302H26.7941C26.297 41.4186 25.8071 41.3093 25.3523 41.1083C24.8975 40.9074 24.4868 40.6188 24.1436 40.259C23.0032 39.0571 22.9725 37.2083 23.989 35.8825C24.0208 35.8211 24.0208 35.7904 23.989 35.7597C22.819 34.2497 22.2027 32.493 22.2027 30.6748V30.2439C22.2836 29.2459 22.5553 28.2728 23.0032 27.3774L23.4352 26.5462C24.5132 24.7587 26.2392 23.2794 28.3348 22.3857H28.337C28.5666 23.4416 29.1993 24.3662 30.1003 24.9627H34.7147Z" fill="#B55701"/>
<path d="M38.51 20.4041L38.5121 20.4107C37.8312 20.6311 37.1184 20.9195 36.5624 21.1575L36.5493 21.1586C36.5026 20.5909 36.3398 20.0388 36.0711 19.5365C35.8023 19.0343 35.4333 18.5926 34.9869 18.2387C34.5405 17.8849 34.0262 17.6265 33.4759 17.4795C32.9255 17.3326 32.3508 17.3002 31.7875 17.3844C31.2241 17.4685 30.684 17.6675 30.2007 17.9689C29.7173 18.2703 29.301 18.6678 28.9775 19.1367C28.654 19.6055 28.4303 20.1358 28.3201 20.6947C28.2099 21.2536 28.2156 21.8291 28.3369 22.3857H28.3347C26.2391 23.2794 24.5131 24.7587 23.4352 26.5461L23.0031 27.3773C22.5553 28.2728 22.2835 29.2459 22.2026 30.2438V30.6748C22.2026 32.4929 22.8189 34.2496 23.9889 35.7596C24.0207 35.7903 24.0207 35.821 23.9889 35.8825C22.9724 37.2082 23.0031 39.0571 24.1436 40.2589C24.4868 40.6187 24.8975 40.9073 25.3523 41.1082C25.807 41.3092 26.297 41.4186 26.794 41.4301H26.9168C27.8785 41.436 28.8056 41.0716 29.5059 40.4125L30.2757 39.6734C30.2878 39.6617 30.3023 39.6529 30.3183 39.6476C30.3342 39.6423 30.3511 39.6406 30.3678 39.6427C31.9648 40.017 33.6204 40.0692 35.2377 39.7962C35.2544 39.7941 35.2713 39.7958 35.2873 39.8011C35.3032 39.8064 35.3178 39.8152 35.3299 39.8269L35.9154 40.3818C36.6225 41.0393 37.5458 41.4154 38.5111 41.4389L38.51 41.4761V47.7278C38.5098 48.3305 38.2702 48.9085 37.8439 49.3346C37.4176 49.7607 36.8395 50 36.2367 49.9999H4.09027C3.0065 49.9966 1.96807 49.5646 1.20172 48.7982C0.43537 48.0319 0.00335483 46.9934 0 45.9096V4.34351H0.0120625C0.169971 6.45005 1.90477 8.05765 4.09027 8.05765H36.2367C36.5353 8.05763 36.8309 8.11642 37.1067 8.23066C37.3825 8.34489 37.6331 8.51234 37.8442 8.72343C38.0553 8.93452 38.2227 9.18512 38.3369 9.46093C38.4512 9.73674 38.51 10.0323 38.51 10.3309V20.4041Z" fill="#FF7A00"/>
<path d="M36.5493 21.1587C36.558 21.2684 36.5624 21.3802 36.5624 21.4921C36.5588 22.177 36.3887 22.8509 36.0669 23.4555C35.745 24.0601 35.2809 24.5774 34.7147 24.9628H30.1002C29.1992 24.3663 28.5665 23.4417 28.3369 22.3858C28.2734 22.0922 28.2414 21.7925 28.2415 21.4921C28.2415 20.4175 28.6573 19.3846 29.4017 18.6097C30.1462 17.8348 31.1616 17.378 32.2353 17.3349C33.309 17.2918 34.3577 17.6658 35.1618 18.3786C35.966 19.0914 36.4632 20.0876 36.5493 21.1587Z" fill="#FEDB41"/>
<path d="M34.6873 2.27213V8.05772H4.09027C1.90477 8.05772 0.169971 6.45013 0.0120625 4.34358C0.00438642 4.23941 0 4.13523 0 4.02886C0.00284957 3.49927 0.111179 2.97555 0.318662 2.48828C0.526145 2.00102 0.828625 1.55997 1.20844 1.19089C1.97546 0.430994 3.01057 0.00324208 4.09027 4.24068e-08H32.414C33.0168 -0.000116309 33.5949 0.239195 34.0212 0.665296C34.4475 1.0914 34.6871 1.66939 34.6873 2.27213Z" fill="#E3E1D7"/>
<path d="M21.5397 27.6397C20.8019 27.6403 20.0804 27.422 19.4667 27.0124C18.853 26.6028 18.3747 26.0203 18.0922 25.3386C17.8097 24.657 17.7359 23.9069 17.8799 23.1833C18.024 22.4596 18.3796 21.795 18.9016 21.2736C19.0249 21.1502 19.1923 21.0808 19.3668 21.0808C19.5413 21.0808 19.7087 21.1501 19.8321 21.2735C19.9555 21.3969 20.0248 21.5642 20.0248 21.7387C20.0248 21.9132 19.9555 22.0806 19.8321 22.204C19.3809 22.6572 19.128 23.2709 19.1287 23.9104C19.1295 24.5499 19.3839 25.163 19.8362 25.6152C20.2884 26.0673 20.9016 26.3215 21.5411 26.3221C22.1806 26.3227 22.7942 26.0695 23.2473 25.6182C23.3707 25.4948 23.5381 25.4255 23.7126 25.4255C23.8871 25.4255 24.0545 25.4948 24.1779 25.6182C24.3013 25.7416 24.3706 25.909 24.3706 26.0835C24.3706 26.258 24.3013 26.4254 24.1779 26.5488C23.8316 26.8954 23.4203 27.1702 22.9676 27.3574C22.5149 27.5446 22.0296 27.6405 21.5397 27.6397Z" fill="#E8895F"/>
<path d="M37.8564 30.1923C37.5434 30.1923 37.2375 30.0995 36.9773 29.9257C36.717 29.7518 36.5142 29.5046 36.3945 29.2155C36.2747 28.9264 36.2434 28.6082 36.3044 28.3013C36.3655 27.9943 36.5162 27.7124 36.7375 27.4911C36.9588 27.2698 37.2407 27.1191 37.5477 27.058C37.8546 26.9969 38.1728 27.0283 38.4619 27.148C38.7511 27.2678 38.9982 27.4706 39.1721 27.7308C39.346 27.9911 39.4388 28.297 39.4388 28.61C39.4383 29.0295 39.2714 29.4317 38.9748 29.7284C38.6781 30.025 38.2759 30.1919 37.8564 30.1923Z" fill="#FF7A00"/>
</svg>
