<svg width="26" height="25" viewBox="0 0 26 25" fill="none" xmlns="http://www.w3.org/2000/svg">
<path fill-rule="evenodd" clip-rule="evenodd" d="M6.5702 0C2.94158 0 0 2.94158 0 6.5702V13.0697C0 14.9874 0.821528 16.7131 2.13183 17.9142C3.33111 19.5025 5.2349 20.529 7.37845 20.529H17.6767C21.3053 20.529 24.2469 17.5874 24.2469 13.9588V7.45924C24.2469 5.54162 23.4253 3.81588 22.115 2.61477C20.9158 1.02651 19.012 0 16.8684 0H6.5702ZM22.115 2.61477C20.9459 1.54307 19.3877 0.889038 17.6767 0.889038H7.37844C3.74982 0.889038 0.808244 3.83061 0.808244 7.45923V13.9588C0.808244 15.4439 1.30096 16.8139 2.13183 17.9142C3.30096 18.9859 4.8592 19.6399 6.57021 19.6399H16.8684C20.497 19.6399 23.4386 16.6984 23.4386 13.0698V6.5702C23.4386 5.08513 22.9459 3.71513 22.115 2.61477Z" fill="#F5F5F5"/>
<path d="M3.46185 1.55517C2.68428 1.74747 1.81474 2.55013 1.4803 3.38623L1.288 3.8628L1.26291 11.1954C1.23783 19.339 1.22947 19.2136 1.78129 20.0664C2.06557 20.5179 2.50034 20.9108 2.96019 21.1533C3.52038 21.4376 4.13909 21.4627 10.251 21.4627H16.296V23.2603C16.296 24.9576 16.3043 25.0579 16.4465 24.9826C16.5217 24.9325 17.0819 24.481 17.6755 23.9626C18.2775 23.4526 19.1805 22.675 19.6989 22.2486L20.6269 21.4627H21.5801C23.2021 21.4627 23.9463 21.2369 24.6319 20.5262C24.8242 20.3339 25.0917 19.941 25.2171 19.6651L25.4512 19.1634V11.4295V3.69558L25.1753 3.1354C24.8743 2.51668 24.3559 1.9983 23.7372 1.70567L23.361 1.52173L13.5368 1.50501C8.13564 1.50501 3.60399 1.52173 3.46185 1.55517ZM11.7978 6.4129L11.8228 9.17203L13.495 7.31589C15.3763 5.22564 15.9197 4.62365 16.4632 4.04674L16.8394 3.64542L17.826 3.6705L18.8043 3.69558L18.035 4.57349C17.0652 5.67714 13.495 9.72385 13.2275 10.0165L13.0268 10.2339L14.4231 12.1485C16.9816 15.6518 19.1052 18.5781 19.1721 18.6785C19.2223 18.7621 19.0049 18.7872 18.1939 18.7872H17.1571L15.8863 17.0982C15.1839 16.1618 13.98 14.5649 13.2108 13.5448L11.8228 11.6887L11.7978 15.2337L11.781 18.7872H10.9449H10.1088V16.1534V13.5197H8.81288H7.51693V12.6418V11.7639H8.81288H10.1088V10.886V10.0081H8.81288H7.51693V9.08842V8.16871H8.81288H10.1088V5.91124V3.65378H10.9449H11.781L11.7978 6.4129Z" fill="#F5F5F5"/>
</svg>
