<svg width="52" height="66" viewBox="0 0 52 66" fill="none" xmlns="http://www.w3.org/2000/svg">
<path fill-rule="evenodd" clip-rule="evenodd" d="M25.625 17.375C26.0394 17.375 26.4368 17.5396 26.7299 17.8326C27.0229 18.1257 27.1875 18.5231 27.1875 18.9375V25.1875C27.1875 25.6019 27.0229 25.9993 26.7299 26.2924C26.4368 26.5854 26.0394 26.75 25.625 26.75C25.2106 26.75 24.8132 26.5854 24.5201 26.2924C24.2271 25.9993 24.0625 25.6019 24.0625 25.1875V18.9375C24.0625 18.5231 24.2271 18.1257 24.5201 17.8326C24.8132 17.5396 25.2106 17.375 25.625 17.375ZM38.125 42.375V23.625C38.125 20.3098 36.808 17.1304 34.4638 14.7862C32.1196 12.442 28.9402 11.125 25.625 11.125C22.3098 11.125 19.1304 12.442 16.7862 14.7862C14.442 17.1304 13.125 20.3098 13.125 23.625V42.375C13.125 45.6902 14.442 48.8696 16.7862 51.2138C19.1304 53.558 22.3098 54.875 25.625 54.875C28.9402 54.875 32.1196 53.558 34.4638 51.2138C36.808 48.8696 38.125 45.6902 38.125 42.375ZM25.625 8C21.481 8 17.5067 9.6462 14.5765 12.5765C11.6462 15.5067 10 19.481 10 23.625V42.375C10 46.519 11.6462 50.4933 14.5765 53.4235C17.5067 56.3538 21.481 58 25.625 58C29.769 58 33.7433 56.3538 36.6735 53.4235C39.6038 50.4933 41.25 46.519 41.25 42.375V23.625C41.25 19.481 39.6038 15.5067 36.6735 12.5765C33.7433 9.6462 29.769 8 25.625 8V8Z" fill="#FF7A00"/>
</svg>
