<svg width="67" height="62" viewBox="0 0 67 62" fill="none" xmlns="http://www.w3.org/2000/svg">
<path d="M54.5868 30.5242C53.1774 30.5254 51.826 31.0852 50.8286 32.0809C49.8312 33.0767 49.2691 34.4271 49.2654 35.8364V40.8862H59.9081V35.8364C59.9044 34.4271 59.3423 33.0767 58.3449 32.0809C57.3475 31.0852 55.9961 30.5254 54.5868 30.5242Z" fill="#F5F5F5"/>
<path d="M44.974 45.3494V59.5968C44.974 60.2342 45.2272 60.8455 45.6779 61.2962C46.1286 61.7468 46.7398 62 47.3772 62H61.6247C62.262 62 62.8733 61.7468 63.324 61.2962C63.7747 60.8455 64.0279 60.2342 64.0279 59.5968V45.3494C64.0279 44.712 63.7747 44.1007 63.324 43.65C62.8733 43.1994 62.262 42.9462 61.6247 42.9462H47.3772C46.7398 42.9462 46.1286 43.1994 45.6779 43.65C45.2272 44.1007 44.974 44.712 44.974 45.3494ZM50.9631 55.6117C51.4283 55.5107 51.8472 55.259 52.1549 54.8956C52.4625 54.5323 52.6417 54.0776 52.6646 53.6021C52.6702 53.4718 52.674 53.2456 52.6769 53.2456H51.6585C51.3853 53.2456 51.1233 53.137 50.9302 52.9439C50.737 52.7507 50.6285 52.4888 50.6285 52.2156C50.6285 51.9425 50.737 51.6805 50.9302 51.4873C51.1233 51.2942 51.3853 51.1857 51.6585 51.1857H52.6026C52.5691 50.8424 52.5293 50.4402 52.4738 50.089L52.4615 49.9563C52.3555 49.3076 52.4434 48.6421 52.7141 48.0432C52.9847 47.4442 53.4262 46.9385 53.983 46.5894C54.5021 46.2611 55.1038 46.087 55.718 46.0875C56.1567 46.0883 56.591 46.1757 56.996 46.3445C57.4009 46.5133 57.7687 46.7603 58.0781 47.0713C58.3876 47.3824 58.6327 47.7514 58.7994 48.1572C58.9661 48.563 59.0512 48.9977 59.0498 49.4365V49.889C59.0498 50.1621 58.9413 50.4241 58.7482 50.6173C58.555 50.8104 58.293 50.9189 58.0199 50.9189C57.7467 50.9189 57.4848 50.8104 57.2916 50.6173C57.0985 50.4241 56.99 50.1621 56.99 49.889V49.4365C56.9917 49.2683 56.96 49.1015 56.8969 48.9457C56.8337 48.7898 56.7403 48.648 56.622 48.5285C56.5037 48.409 56.363 48.3141 56.2078 48.2493C56.0526 48.1844 55.8861 48.151 55.718 48.151C55.4766 48.1522 55.2403 48.2204 55.0355 48.348C54.825 48.4869 54.66 48.6847 54.5612 48.9167C54.4623 49.1486 54.4338 49.4046 54.4793 49.6526L54.5001 49.7681C54.572 50.2249 54.6322 50.67 54.6717 51.185H55.4653C55.7385 51.185 56.0004 51.2935 56.1936 51.4867C56.3867 51.6798 56.4952 51.9418 56.4952 52.2149C56.4952 52.4881 56.3867 52.7501 56.1936 52.9432C56.0004 53.1364 55.7385 53.2449 55.4653 53.2449H54.7382C54.7349 53.4165 54.7299 53.5317 54.7229 53.6922C54.6868 54.49 54.4187 55.26 53.9515 55.9078C54.1581 56.0064 54.3571 56.1203 54.5468 56.2485C54.9116 56.4947 55.3352 56.6397 55.7743 56.6686C56.2135 56.6975 56.6525 56.6094 57.0464 56.4131L57.564 56.1556C57.6852 56.0934 57.8175 56.0558 57.9534 56.045C58.0892 56.0343 58.2258 56.0506 58.3553 56.093C58.4848 56.1354 58.6046 56.2031 58.7077 56.2922C58.8108 56.3812 58.8953 56.4899 58.9561 56.6118C59.017 56.7337 59.0531 56.8665 59.0622 57.0024C59.0714 57.1384 59.0535 57.2748 59.0096 57.4038C58.9657 57.5328 58.8966 57.6517 58.8063 57.7538C58.7161 57.8559 58.6065 57.9391 58.4839 57.9986L57.9665 58.256C57.2457 58.6152 56.4425 58.7766 55.6389 58.7238C54.8354 58.6709 54.0602 58.4057 53.3927 57.9551C53.1238 57.7722 52.8214 57.6444 52.5029 57.5788C52.1844 57.5133 51.856 57.5115 51.5368 57.5734L51.5222 57.5758C51.4865 57.5849 51.4518 57.5974 51.4158 57.6056C51.2842 57.6368 51.1477 57.6415 51.0143 57.6194C50.8809 57.5974 50.7532 57.549 50.6386 57.4771C50.5241 57.4052 50.425 57.3113 50.3471 57.2007C50.2692 57.0902 50.2141 56.9652 50.185 56.8332C50.1555 56.7019 50.1522 56.566 50.1754 56.4334C50.1986 56.3008 50.2477 56.1741 50.32 56.0606C50.3923 55.9471 50.4864 55.849 50.5967 55.7719C50.7071 55.6949 50.8316 55.6404 50.9631 55.6117Z" fill="#F5F5F5"/>
<path d="M1.02582 34.8784H4.97529C5.17117 34.8793 5.36274 34.9359 5.52772 35.0415C5.69269 35.1471 5.8243 35.2974 5.90721 35.4749C6.76872 37.2816 7.89206 38.9514 9.24095 40.4302C12.2394 43.7638 13.8913 48.0931 13.8757 52.5767C13.8764 53.0731 14.0742 53.5489 14.4255 53.8997C14.7768 54.2504 15.253 54.4473 15.7495 54.4472H19.7896C20.288 54.4436 20.7648 54.2431 21.116 53.8894C21.4672 53.5357 21.6643 53.0574 21.6642 52.559C21.6649 51.5144 22.0792 50.5127 22.8166 49.7728C23.5539 49.0329 24.5542 48.6151 25.5988 48.6109H33.1395C34.184 48.6152 35.1843 49.033 35.9216 49.7728C36.659 50.5127 37.0733 51.5144 37.074 52.559C37.074 53.0575 37.2711 53.5357 37.6223 53.8894C37.9735 54.2432 38.4504 54.4437 38.9489 54.4472H42.9141V45.2737C42.921 44.1222 43.3703 43.0174 44.1691 42.1879C44.9679 41.3585 46.0551 40.8679 47.2055 40.8177V35.8365C47.2078 34.4742 47.5869 33.1391 48.3009 31.9788C49.0148 30.8185 50.0359 29.8784 51.251 29.2624C52.4661 28.6464 53.8279 28.3785 55.1858 28.4885C56.5437 28.5984 57.8447 29.0818 58.9449 29.8852C59.0035 29.2501 59.0443 28.6108 59.0443 27.9724C59.0443 27.797 59.0466 27.5854 59.0423 27.4108C59.1972 27.4797 59.3668 27.5092 59.536 27.4966H59.7879C60.6694 27.4996 61.5429 27.3288 62.3583 26.994C63.1737 26.6591 63.9151 26.1668 64.54 25.5451C65.165 24.9235 65.6613 24.1848 66.0005 23.3711C66.3397 22.5575 66.5152 21.685 66.5169 20.8036C66.5169 20.5304 66.4084 20.2684 66.2152 20.0753C66.0221 19.8821 65.7601 19.7736 65.4869 19.7736C65.2138 19.7736 64.9518 19.8821 64.7587 20.0753C64.5655 20.2684 64.457 20.5304 64.457 20.8036C64.4557 21.4147 64.3337 22.0195 64.0982 22.5834C63.8626 23.1473 63.5181 23.6591 63.0843 24.0896C62.6506 24.5201 62.1361 24.8607 61.5704 25.0919C61.0048 25.3232 60.399 25.4406 59.7879 25.4373H59.5368C59.3153 25.4501 59.1035 25.5323 58.9312 25.6721C57.6673 14.2015 46.9069 5.23123 33.8618 5.23123C32.5496 5.23533 31.2389 5.32265 29.9377 5.49266C30.6653 7.13006 31.0407 8.90208 31.0396 10.6939C31.04 10.967 30.9319 11.2292 30.7391 11.4226C30.5463 11.6161 30.2845 11.725 30.0113 11.7254C29.7381 11.7259 29.476 11.6178 29.2825 11.4249C29.0891 11.2321 28.9802 10.9703 28.9797 10.6971C28.9764 8.08118 28.0242 5.55527 26.2999 3.58809C24.5755 1.62091 22.1961 0.346027 19.6032 0C20.2256 2.2401 20.4081 4.57957 20.1406 6.88909C20.1193 7.08317 20.0425 7.267 19.9194 7.41857C19.7963 7.57015 19.6322 7.68305 19.4466 7.74377C14.3843 9.64223 10.0773 13.1366 7.17627 17.699L5.71118 20.0024C5.61706 20.1465 5.48768 20.264 5.33533 20.344C5.18297 20.4239 5.01271 20.4636 4.84071 20.4592H1.02582C0.762963 20.4664 0.512226 20.5713 0.322551 20.7534C0.132875 20.9356 0.0178756 21.1818 0 21.4442V33.9514C0 34.469 0.507416 34.8784 1.02582 34.8784ZM14.1042 17.1634C14.3773 17.1634 14.6393 17.2719 14.8324 17.4651C15.0256 17.6582 15.1341 17.9202 15.1341 18.1934C15.1341 18.8084 15.3784 19.3982 15.8133 19.8331C16.2482 20.2679 16.838 20.5123 17.453 20.5123C18.068 20.5123 18.6578 20.2679 19.0927 19.8331C19.5276 19.3982 19.7719 18.8084 19.7719 18.1934C19.7719 17.9202 19.8804 17.6582 20.0736 17.4651C20.2667 17.2719 20.5287 17.1634 20.8018 17.1634C21.075 17.1634 21.337 17.2719 21.5301 17.4651C21.7233 17.6582 21.8318 17.9202 21.8318 18.1934C21.8318 19.3547 21.3705 20.4684 20.5493 21.2896C19.7281 22.1108 18.6143 22.5721 17.453 22.5721C16.2917 22.5721 15.1779 22.1108 14.3567 21.2896C13.5356 20.4684 13.0742 19.3547 13.0742 18.1934C13.0742 17.9202 13.1827 17.6582 13.3759 17.4651C13.569 17.2719 13.831 17.1634 14.1042 17.1634Z" fill="#F5F5F5"/>
</svg>
