<svg width="50" height="50" viewBox="0 0 50 50" fill="none" xmlns="http://www.w3.org/2000/svg">
<g clip-path="url(#clip0)">
<path d="M16.3793 27.5864H23.2758V34.483H16.3793V27.5864Z" fill="#E1B494"/>
<path d="M29.3104 9.48291V19.8277C29.3104 25.0649 25.0648 29.3105 19.8276 29.3105C14.5904 29.3105 10.3448 25.0649 10.3448 19.8277V9.48291H29.3104Z" fill="#F2CBA7"/>
<path d="M18.1034 19.8277H16.3793V18.9656C16.3793 18.4895 15.9933 18.1035 15.5172 18.1035C15.0412 18.1035 14.6552 18.4895 14.6552 18.9656V19.8277H12.931V18.9656C12.931 17.5373 14.0889 16.3794 15.5172 16.3794C16.9456 16.3794 18.1034 17.5373 18.1034 18.9656V19.8277Z" fill="#505968"/>
<path d="M26.7241 19.8277H25V18.9656C25 18.4895 24.614 18.1035 24.1379 18.1035C23.6619 18.1035 23.2759 18.4895 23.2759 18.9656V19.8277H21.5517V18.9656C21.5517 17.5373 22.7096 16.3794 24.1379 16.3794C25.5663 16.3794 26.7241 17.5373 26.7241 18.9656V19.8277Z" fill="#505968"/>
<path d="M17.2414 22.4136H22.4138V23.2757C22.4138 24.704 21.2559 25.8619 19.8276 25.8619C18.3992 25.8619 17.2414 24.704 17.2414 23.2757V22.4136Z" fill="#EE2849"/>
<path d="M10.3449 17.2412H8.62072C7.66845 17.2412 6.89658 18.0131 6.89658 18.9653C6.89658 19.9176 7.66845 20.6895 8.62072 20.6895H10.3449V17.2412Z" fill="#E1B494"/>
<path d="M29.3104 17.2412H31.0345C31.9868 17.2412 32.7587 18.0131 32.7587 18.9653C32.7587 19.9176 31.9868 20.6895 31.0345 20.6895H29.3104V17.2412Z" fill="#E1B494"/>
<path d="M10.3448 10.3448H29.3103V9.48276C29.3103 4.24558 25.0647 0 19.8276 0H5.17239V5.17241C5.17239 8.02909 7.48812 10.3448 10.3448 10.3448Z" fill="#FAA41B"/>
<path d="M29.3104 14.6551H26.7242C24.3437 14.6551 22.4138 12.7252 22.4138 10.3447H29.3104V14.6551Z" fill="#F08015"/>
<path d="M16.3793 31.0347H11.2069C7.39804 31.0347 4.31032 34.1224 4.31032 37.9312V50.0002H35.3448V37.9312C35.3448 34.1224 32.2571 31.0347 28.4483 31.0347H23.2758C23.2758 32.9391 21.732 34.4829 19.8276 34.4829C17.9231 34.4829 16.3793 32.9391 16.3793 31.0347Z" fill="#FF7A00"/>
<path d="M35.3448 50.0002C41.0581 50.0002 45.6897 45.3687 45.6897 39.6554C45.6897 33.9421 41.0581 29.3105 35.3448 29.3105C29.6315 29.3105 25 33.9421 25 39.6554C25 45.3687 29.6315 50.0002 35.3448 50.0002Z" fill="#1598FC"/>
<path d="M33.6207 34.4829H37.0689V37.9312H40.5172V41.3795H37.0689V44.8277H33.6207V41.3795H30.1724V37.9312H33.6207V34.4829Z" fill="#EFF2FA"/>
</g>
<defs>
<clipPath id="clip0">
<rect width="50" height="50" fill="white"/>
</clipPath>
</defs>
</svg>
