<svg width="50" height="50" viewBox="0 0 50 50" fill="none" xmlns="http://www.w3.org/2000/svg">
<g clip-path="url(#clip0)">
<path d="M11.017 40.6819H15.2543V46.6141H11.017V40.6819Z" fill="#B55701"/>
<path d="M26.2712 40.6819H30.5085V46.6141H26.2712V40.6819Z" fill="#B55701"/>
<path d="M47.8814 25.4275C46.6729 25.4639 45.7221 26.4733 45.7586 27.6817C45.7594 27.7114 45.7611 27.7402 45.7627 27.7698V27.9698H42.3729V29.6647H45.7627V31.3596H47.4577V29.6647H47.8814C49.0517 29.6647 50.0001 28.7164 50.0001 27.546C50.0001 26.3757 49.0517 25.4275 47.8814 25.4275ZM47.8814 27.9698H47.4577V27.7698C47.4577 27.4571 47.5687 27.1223 47.8814 27.1223C48.1153 27.1223 48.3051 27.3122 48.3051 27.546C48.3051 27.78 48.1153 27.9698 47.8814 27.9698Z" fill="#A67C52"/>
<path d="M23.7288 12.7158H20.339C12.2839 12.7142 5.33984 18.3828 3.72881 26.2751H2.54238C1.13818 26.2751 0 27.4133 0 28.8175V33.9022C0 35.3064 1.13818 36.4446 2.54238 36.4446H4.38897C6.22627 40.5667 10.3169 43.2226 14.8305 43.2243H33.8982C39.4194 43.2522 43.944 38.8497 44.0678 33.3303C44.2194 22.098 35.2381 12.8701 24.0059 12.7176C23.9136 12.7167 23.8212 12.7158 23.7288 12.7158Z" fill="#FF7A00"/>
<path d="M15.5737 13.4063C8.33386 10.4911 3.38981 11.5181 3.38981 14.4105C3.38981 16.8495 5.13981 19.2808 6.12458 20.4571C8.32966 17.0529 11.6822 14.5512 15.5737 13.4063Z" fill="#B55701"/>
<path d="M30.5085 39.8342V48.3088H37.2882V40.6817" fill="#FF7A00"/>
<path d="M13.5593 13.5632C13.5568 16.754 14.8432 19.8107 17.128 22.0378H33.7194C38.4042 17.4565 38.4872 9.94458 33.9059 5.25992C29.3245 0.575248 21.8127 0.492045 17.128 5.07339C14.8441 7.30816 13.5576 10.3683 13.5593 13.5632Z" fill="#EEB83B"/>
<path d="M2.54233 28.8174H4.23725V30.5123H2.54233V28.8174Z" fill="#F2F2F2"/>
<path d="M15.2542 39.8342V48.3088H22.0339V40.6817" fill="#FF7A00"/>
<path d="M25.4238 22.0344C30.1042 22.0344 33.8984 18.2402 33.8984 13.5598C33.8984 8.87942 30.1042 5.08521 25.4238 5.08521C20.7434 5.08521 16.9492 8.87942 16.9492 13.5598C16.9492 18.2402 20.7434 22.0344 25.4238 22.0344Z" fill="#FED856"/>
<path d="M8.47458 22.8853H10.1695V24.5802H8.47458V22.8853Z" fill="#F2F2F2"/>
<path d="M26.2711 9.44883V8.47852H24.5762V9.44883C23.305 9.84463 22.5957 11.1954 22.9907 12.4658C23.1865 13.0938 23.6296 13.6149 24.2186 13.9082L25.8703 14.7336C26.2279 14.9115 26.3745 15.3455 26.1965 15.7039C26.0745 15.9505 25.8228 16.1064 25.5474 16.1056H25.2999C24.9008 16.1047 24.5771 15.781 24.5762 15.3818V15.2581H22.8813V15.3818C22.8855 16.4353 23.5711 17.3641 24.5762 17.6776V18.6479H26.2711V17.6776C27.5423 17.2818 28.2516 15.9311 27.8567 14.6606C27.6609 14.0327 27.2177 13.5115 26.6288 13.2183L24.9771 12.3929C24.6195 12.2149 24.4729 11.7811 24.6508 11.4226C24.7729 11.176 25.0246 11.02 25.2999 11.0209H25.5474C25.9465 11.0218 26.2703 11.3455 26.2711 11.7446V11.8684H27.9661V11.7446C27.9618 10.6921 27.2762 9.76328 26.2711 9.44883Z" fill="#CD9829"/>
<path d="M19.4915 12.7158H21.1864V14.4107H19.4915V12.7158Z" fill="#CD9829"/>
<path d="M29.661 12.7158H31.356V14.4107H29.661V12.7158Z" fill="#CD9829"/>
<path d="M13.5592 21.1904H37.2881V22.8854H13.5592V21.1904Z" fill="#B55701"/>
</g>
<defs>
<clipPath id="clip0">
<rect width="50" height="50" fill="white"/>
</clipPath>
</defs>
</svg>
